<svg width="38" height="23" viewBox="0 0 38 23" fill="none" xmlns="http://www.w3.org/2000/svg">
<path d="M4.07143 0C1.83893 0 0 1.55825 0 3.45V19.55C0 21.4417 1.83893 23 4.07143 23H33.9286C36.1611 23 38 21.4417 38 19.55V3.45C38 1.55825 36.1611 0 33.9286 0H4.07143ZM4.07143 2.3H33.9286C34.6967 2.3 35.2857 2.7991 35.2857 3.45V19.55C35.2857 20.2009 34.6967 20.7 33.9286 20.7H4.07143C3.30329 20.7 2.71429 20.2009 2.71429 19.55V3.45C2.71429 2.7991 3.30329 2.3 4.07143 2.3ZM12.2116 5.75C11.5805 5.75 10.8599 6.05475 10.393 6.4998C10.032 6.86895 9.63979 7.45545 9.7755 8.0408C10.4229 8.1052 11.1299 7.76135 11.5357 7.3163C11.9863 6.90805 12.2414 6.33535 12.2116 5.75ZM14.9286 8.05V14.95H16.1934V12.5867H17.9536C19.5483 12.5867 20.6747 11.6575 20.6747 10.3189C20.6747 8.9677 19.5619 8.05 17.9821 8.05H14.9286ZM7.923 8.65145C6.51157 8.65145 5.42857 9.69795 5.42857 11.1987C5.42857 13.1537 7.049 14.95 8.06143 14.95C8.67214 14.95 8.89471 14.6016 9.70629 14.6016C10.4541 14.6016 10.6902 14.95 11.3267 14.95C12.5346 14.95 13.5334 12.8685 13.5714 12.742C13.3719 12.6569 12.2102 12.1934 12.2116 11.0733C12.2116 9.98545 13.2715 9.49785 13.3217 9.476C12.7354 8.73655 11.8126 8.65145 11.4638 8.65145C10.6536 8.65145 9.94514 9.0229 9.55836 9.0229C9.15936 9.0229 8.57171 8.65145 7.923 8.65145ZM16.1934 8.95505H17.651C18.7489 8.95505 19.3814 9.45185 19.3814 10.3189C19.3814 11.186 18.7489 11.6955 17.651 11.6955H16.1934V8.95505ZM23.655 9.81065C22.3169 9.81065 21.3221 10.4615 21.2936 11.3539H22.4349C22.5259 10.9331 22.9914 10.6524 23.6224 10.6524C24.4041 10.6524 24.8289 10.9595 24.8289 11.5207V11.9025L23.2492 11.9922C21.7903 12.0692 20.9909 12.5787 20.9909 13.4584C20.9909 14.3508 21.8039 14.95 22.9764 14.95C23.7731 14.95 24.5127 14.605 24.8425 14.0691H24.871V14.8982H26.0449V11.4574C26.0449 10.4627 25.099 9.81065 23.655 9.81065ZM26.5647 9.8762L28.7009 14.912L28.595 15.2168C28.3996 15.7274 28.0834 15.9321 27.5269 15.9321C27.4224 15.9321 27.2284 15.9183 27.1537 15.9183V16.7463C27.2297 16.7589 27.5419 16.7716 27.6328 16.7716C28.8678 16.7716 29.4541 16.3645 29.9671 15.1662L32.1765 9.8762H30.8967L29.4093 13.9552H29.3767L27.8906 9.8762H26.5647ZM24.8276 12.627V13.0111H24.8262C24.8262 13.6608 24.1802 14.1186 23.3239 14.1186C22.6453 14.1186 22.2259 13.8529 22.2259 13.432C22.2259 12.9985 22.6317 12.742 23.4297 12.7041L24.8276 12.627Z" fill="#434343"/>
</svg>
