<svg width="35" height="23" viewBox="0 0 35 23" fill="none" xmlns="http://www.w3.org/2000/svg">
<path d="M35 0V5.95044C32.2331 5.94944 29.9881 3.28456 29.9873 0H35ZM35 17.0495V23H29.9873C29.9881 19.7144 32.2331 17.0495 35 17.0495ZM5.01271 23H0V17.0495C2.76695 17.0495 5.01271 19.7144 5.01271 23ZM5.01186 0C5.01271 3.28456 2.76695 5.95044 0 5.95044V0H5.01186ZM6.83729 9.34365C7.84068 9.34365 8.65424 10.3084 8.65424 11.4995C8.65424 12.6906 7.84068 13.6563 6.83729 13.6563C5.83475 13.6563 5.02119 12.6906 5.02119 11.4995C5.02119 10.3084 5.83475 9.34365 6.83729 9.34365Z" fill="#77D379"/>
<path d="M17.4997 17.449C20.2676 17.449 22.5115 14.7854 22.5115 11.4996C22.5115 8.21383 20.2676 5.55017 17.4997 5.55017C14.7317 5.55017 12.4878 8.21383 12.4878 11.4996C12.4878 14.7854 14.7317 17.449 17.4997 17.449Z" fill="#77D379"/>
<path d="M28.1627 9.34375C29.1652 9.34375 29.9788 10.3085 29.9788 11.4996C29.9788 12.6907 29.1652 13.6564 28.1627 13.6564C27.1593 13.6564 26.3457 12.6907 26.3457 11.4996C26.3457 10.3085 27.1593 9.34375 28.1627 9.34375Z" fill="#77D379"/>
<path d="M35 5.95044V17.0495C32.2331 17.0495 29.9881 19.7144 29.9873 23H5.01271C5.01271 19.7144 2.76695 17.0495 0 17.0495V5.95044C2.76695 5.95044 5.01271 3.28456 5.01186 0H29.9873C29.9881 3.28456 32.2331 5.94944 35 5.95044ZM29.9788 11.4995C29.9788 10.3084 29.1653 9.34365 28.1627 9.34365C27.1593 9.34365 26.3458 10.3084 26.3458 11.4995C26.3458 12.6906 27.1593 13.6563 28.1627 13.6563C29.1653 13.6563 29.9788 12.6906 29.9788 11.4995ZM22.5119 11.4995C22.5119 8.21392 20.2678 5.55006 17.5 5.55006C14.7322 5.55006 12.4881 8.21392 12.4881 11.4995C12.4881 14.7851 14.7322 17.4489 17.5 17.4489C20.2678 17.4489 22.5119 14.7851 22.5119 11.4995ZM8.65424 11.4995C8.65424 10.3084 7.84068 9.34365 6.83729 9.34365C5.83475 9.34365 5.02119 10.3084 5.02119 11.4995C5.02119 12.6906 5.83475 13.6563 6.83729 13.6563C7.84068 13.6563 8.65424 12.6906 8.65424 11.4995Z" fill="#2D9637"/>
<path opacity="0.2" d="M0 11.4995H35V23H0V11.4995Z" fill="url(#paint0_linear_252_2704)"/>
<defs>
<linearGradient id="paint0_linear_252_2704" x1="17.5" y1="11.4995" x2="17.5" y2="23" gradientUnits="userSpaceOnUse">
<stop/>
<stop offset="1" stop-color="white" stop-opacity="0"/>
</linearGradient>
</defs>
</svg>
