<svg width="25" height="25" viewBox="0 0 25 25" fill="none" xmlns="http://www.w3.org/2000/svg">
<g clip-path="url(#clip0_638_2445)">
<path d="M21.3501 11.509C21.2231 11.5827 21.1479 11.625 21.0724 11.6646C16.8903 13.8578 11.8014 12.085 9.69419 7.67789C8.73864 5.67834 8.53852 3.42487 9.08689 1.30565C9.31797 0.41275 8.36013 -0.317675 7.56018 0.141349C2.59323 2.99167 0.665108 9.42826 3.19672 14.7226C3.91416 16.2212 4.93942 17.5062 6.20093 18.5209C6.64916 18.8814 7.30479 18.8103 7.66529 18.362C8.0258 17.9138 7.95471 17.2582 7.50648 16.8977C6.4859 16.0768 5.65735 15.0384 5.07578 13.8235C3.37521 10.2671 4.14162 6.07761 6.70536 3.42311C6.66806 5.18397 7.03686 6.94839 7.81474 8.57622C10.0937 13.3424 15.2399 15.6403 19.9962 14.3201C19.4442 15.3093 18.7108 16.1869 17.8273 16.8979C17.3791 17.2585 17.3083 17.9141 17.6689 18.3623C18.0296 18.8104 18.6852 18.8813 19.1333 18.5207C20.9746 17.0388 22.284 14.9806 22.881 12.6706C23.1124 11.7755 22.1498 11.0452 21.3501 11.509Z" fill="#434343"/>
<path d="M9.06962 21.1389C8.66289 20.7322 8.0034 20.7322 7.59666 21.1389L5.51358 23.222C5.10684 23.6287 5.10684 24.2882 5.51358 24.695C5.92031 25.1017 6.5798 25.1017 6.98654 24.695L9.06962 22.6119C9.47636 22.2051 9.47636 21.5456 9.06962 21.1389Z" fill="#434343"/>
<path d="M11.1527 20.5288L12.1942 19.4873C12.601 19.0806 12.601 18.4211 12.1942 18.0144C11.7875 17.6076 11.128 17.6076 10.7213 18.0144L9.67975 19.0559C9.27301 19.4626 9.27301 20.1221 9.67975 20.5288C10.0865 20.9356 10.7459 20.9356 11.1527 20.5288Z" fill="#434343"/>
<path d="M10.7213 22.1805L9.67975 23.222C9.27301 23.6287 9.27301 24.2882 9.67975 24.695C10.0865 25.1017 10.746 25.1017 11.1527 24.695L12.1942 23.6534C12.601 23.2467 12.601 22.5872 12.1942 22.1805C11.7875 21.7737 11.128 21.7737 10.7213 22.1805Z" fill="#434343"/>
<path d="M14.8874 18.0143L12.8043 20.0974C12.3976 20.5041 12.3976 21.1636 12.8043 21.5704C13.211 21.9771 13.8705 21.9771 14.2772 21.5704L16.3603 19.4873C16.7671 19.0805 16.7671 18.421 16.3603 18.0143C15.9536 17.6076 15.2942 17.6076 14.8874 18.0143Z" fill="#434343"/>
</g>
<defs>
<clipPath id="clip0_638_2445">
<rect width="25" height="25" fill="white"/>
</clipPath>
</defs>
</svg>
