<svg width="18" height="18" viewBox="0 0 18 18" fill="none" xmlns="http://www.w3.org/2000/svg">
<g clip-path="url(#clip0_117_1456)">
<path d="M9.00019 0C6.057 0 3.645 2.4048 3.645 5.33988C3.645 6.47712 4.00824 7.53408 4.62294 8.40276L8.3466 14.8401C8.86807 15.5214 9.21475 15.392 9.64837 14.8041L13.7556 7.8147C13.8384 7.66458 13.9036 7.50474 13.9603 7.34148C14.2209 6.70635 14.3549 6.02641 14.3548 5.33988C14.355 2.4048 11.9437 0 9.00019 0ZM9.00019 2.502C10.5853 2.502 11.8456 3.75948 11.8456 5.33988C11.8456 6.92028 10.5853 8.17722 9.00019 8.17722C7.41528 8.17722 6.15439 6.92046 6.15439 5.33988C6.15439 3.75948 7.41528 2.50218 9.00019 2.50218V2.502Z" fill="#434343"/>
<path d="M12.4043 8.80344L12.3957 8.82612C12.3984 8.81928 12.4006 8.81226 12.4033 8.80542L12.4043 8.80344Z" fill="#434343"/>
<path d="M6.12108 12.4303C3.5784 12.7895 1.8 13.649 1.8 14.9143C1.8 16.6185 4.77144 18 9 18C13.2286 18 16.2 16.6185 16.2 14.9143C16.2 13.649 14.4218 12.7895 11.8793 12.4303L11.527 13.03C13.4433 13.2959 14.76 13.8546 14.76 14.503C14.76 15.412 12.1811 16.1487 9 16.1487C5.81886 16.1487 3.24 15.412 3.24 14.503C3.23982 13.8568 4.54788 13.2986 6.4701 13.0316C6.354 12.8311 6.23736 12.631 6.12108 12.4303Z" fill="#434343"/>
</g>
<defs>
<clipPath id="clip0_117_1456">
<rect width="18" height="18" fill="white"/>
</clipPath>
</defs>
</svg>
