<svg xmlns="http://www.w3.org/2000/svg" xmlns:xlink="http://www.w3.org/1999/xlink" viewBox="0 0 211.33 334.18"><defs><style>.cls-1{fill:url(#linear-gradient);}.cls-2{fill:url(#linear-gradient-2);}.cls-3{fill:url(#linear-gradient-3);}.cls-4{fill:url(#linear-gradient-4);}.cls-5{fill:url(#linear-gradient-5);}.cls-6,.cls-7{fill:none;stroke-linecap:round;stroke-linejoin:round;stroke-width:5px;}.cls-6{stroke:#fff;}.cls-7{stroke:#ededed;}.cls-10,.cls-8{fill:#fff;}.cls-8{opacity:0.2;}.cls-9{fill:#d1d6ed;}</style><linearGradient id="linear-gradient" x1="106" y1="297.56" x2="104.75" y2="136.57" gradientUnits="userSpaceOnUse"><stop offset="0.17" stop-color="#fff"/><stop offset="0.21" stop-color="#f7f8fc"/><stop offset="0.3" stop-color="#e6e9f5"/><stop offset="0.42" stop-color="#dadef1"/><stop offset="0.59" stop-color="#d3d8ee"/><stop offset="1" stop-color="#d1d6ed"/></linearGradient><linearGradient id="linear-gradient-2" x1="35.68" y1="144.4" x2="174.23" y2="144.4" gradientUnits="userSpaceOnUse"><stop offset="0.86" stop-color="#33dbb9"/><stop offset="1" stop-color="#2a6f61"/></linearGradient><linearGradient id="linear-gradient-3" x1="104.99" y1="157.12" x2="104.77" y2="44.6" xlink:href="#linear-gradient-2"/><linearGradient id="linear-gradient-4" x1="109.33" y1="-67.08" x2="104.93" y2="248.58" xlink:href="#linear-gradient-2"/><linearGradient id="linear-gradient-5" x1="104.96" y1="55.78" x2="104.95" y2="-69.47" gradientUnits="userSpaceOnUse"><stop offset="0" stop-color="#33dbb9"/><stop offset="0.06" stop-color="#30bb9f"/><stop offset="0.14" stop-color="#2d927d"/><stop offset="0.21" stop-color="#2b7869"/><stop offset="0.25" stop-color="#2a6f61"/></linearGradient></defs><g id="Layer_2" data-name="Layer 2"><g id="OBJECTS"><path class="cls-1" d="M126.26,334.18H83.66c-23.64,0-47.77-15-55.8-39.79-5.33-16.46-3.19-54.93-3.19-82.61V16.9A16.9,16.9,0,0,1,41.57,0H168.34a16.9,16.9,0,0,1,16.9,16.9V211.78c0,23.71-.69,67-3.21,82.61C174,317.23,151.39,334.18,126.26,334.18Z"/><rect class="cls-2" x="35.68" y="42.54" width="138.55" height="203.74"/><rect class="cls-3" x="48.7" y="69.49" width="112.53" height="142.79"/><path class="cls-4" d="M161.22,201.56a399.38,399.38,0,0,1-112.52,0q-3.2,22.35-6.37,44.71a444.62,444.62,0,0,0,125.25,0Z"/><path class="cls-5" d="M161.22,73.47a399.38,399.38,0,0,0-112.52,0c-2.13-14.9-4.25-16-6.37-30.93a443.87,443.87,0,0,1,125.25,0C165.46,57.44,163.34,58.57,161.22,73.47Z"/><line class="cls-6" x1="174.23" y1="256.67" x2="158.04" y2="194.19"/><line class="cls-7" x1="158.04" y1="77.14" x2="174.23" y2="42.54"/><line class="cls-7" x1="35.89" y1="256.67" x2="52.08" y2="194.19"/><line class="cls-7" x1="52.08" y1="77.14" x2="35.89" y2="42.54"/><line class="cls-7" x1="52.08" y1="196.93" x2="52.08" y2="77.14"/><line class="cls-7" x1="158.04" y1="196.93" x2="158.04" y2="77.14"/><path class="cls-8" d="M30.69,171.31a1.42,1.42,0,0,0-1.42-1.42h0a1.42,1.42,0,0,0-1.41,1.42V239.2a1.41,1.41,0,0,0,1.41,1.42h0a1.41,1.41,0,0,0,1.42-1.42Z"/><path class="cls-9" d="M178.4,207.41H211a16.47,16.47,0,0,1-7,11.16H185.44A16.47,16.47,0,0,1,178.4,207.41Z"/><path class="cls-10" d="M211.33,207.41A1.43,1.43,0,0,0,209.9,206H179.65a1.44,1.44,0,0,0-1.44,1.43h0a1.44,1.44,0,0,0,1.44,1.44H209.9a1.43,1.43,0,0,0,1.43-1.44Z"/><path class="cls-9" d="M.18,207.41H32.8a16.48,16.48,0,0,1-7,11.16H7.22A16.51,16.51,0,0,1,.18,207.41Z"/><path class="cls-10" d="M33.12,207.41A1.43,1.43,0,0,0,31.69,206H1.43A1.43,1.43,0,0,0,0,207.41H0a1.43,1.43,0,0,0,1.43,1.44H31.69a1.43,1.43,0,0,0,1.43-1.44Z"/></g></g></svg>