<svg width="610" height="560" viewBox="0 0 610 560" fill="none" xmlns="http://www.w3.org/2000/svg">
<path d="M387.513 59.2782L395.579 53.367C387.705 59.5307 387.703 59.5289 387.702 59.5273L387.709 59.5358L387.768 59.6134C387.826 59.6886 387.919 59.8103 388.044 59.9753C388.293 60.3056 388.667 60.8077 389.136 61.4564C390.077 62.757 391.386 64.6288 392.827 66.871C395.776 71.4563 399.006 77.1696 400.93 82.5276C403.073 88.4964 402.579 91.198 402.242 91.8338C402.201 91.9101 402.151 91.9845 402.03 92.089C401.897 92.2034 401.572 92.4449 400.9 92.7136C399.507 93.2703 396.871 93.8412 392.329 93.7038C392.236 93.6946 392.134 93.6848 392.021 93.6748C391.564 93.6339 390.944 93.5876 390.171 93.55C388.623 93.4748 386.457 93.4344 383.743 93.5429C378.314 93.76 370.691 94.573 361.443 96.8953L361.441 96.8959C332.749 104.109 289.488 125.609 247.76 186.505L247.759 186.506C214.16 235.546 186.71 283.289 167.666 318.753C158.139 336.494 150.705 351.183 145.645 361.451C143.115 366.586 141.178 370.617 139.869 373.374C139.215 374.752 138.718 375.812 138.382 376.531C138.214 376.891 138.086 377.166 138 377.353L137.929 377.507C137.906 377.553 137.879 377.607 137.849 377.669C137.758 377.858 137.633 378.118 137.48 378.446C137.174 379.101 136.754 380.027 136.261 381.186C135.278 383.498 133.991 386.768 132.733 390.688C130.258 398.399 127.705 409.214 128.203 420.418C128.707 431.77 132.416 444.25 143.219 453.724C153.867 463.061 169.886 468.128 192.157 468.128C234.127 468.128 293.019 466.742 341.337 465.359C365.513 464.667 387.072 463.976 402.588 463.457C410.346 463.197 416.594 462.981 420.903 462.83C423.058 462.754 424.728 462.695 425.86 462.654L427.108 462.609C427.206 462.614 427.314 462.619 427.432 462.624C427.97 462.647 428.71 462.668 429.618 462.668C431.427 462.668 433.939 462.585 436.879 462.262C442.656 461.627 450.618 460.008 458.194 455.821C465.957 451.531 473.32 444.515 477.183 433.518C480.978 422.716 481.004 409.188 476.422 392.451C467.532 359.973 453.179 337.471 439.822 323.489C433.185 316.541 426.631 311.528 420.929 308.5C418.118 307.008 415.154 305.805 412.245 305.253C409.891 304.806 404.945 304.281 400.716 307.592C398.935 308.987 397.704 310.845 397.186 311.629C396.447 312.749 395.671 314.072 394.902 315.432C393.896 317.214 392.696 319.434 391.383 321.863C390.716 323.097 390.02 324.386 389.305 325.699C384.939 333.715 379.289 343.724 372.411 353.556C365.502 363.432 357.604 372.76 348.891 379.609C340.208 386.434 331.223 390.411 321.893 390.623C311.143 390.868 303.667 388.705 298.654 385.574C293.768 382.521 290.572 378.156 288.893 372.578C285.379 360.909 288.472 343.203 300.154 323.977C312.561 303.558 328.08 278.43 340.508 258.391C346.72 248.376 352.155 239.637 356.037 233.403C357.978 230.287 359.531 227.796 360.598 226.085C361.132 225.229 361.544 224.569 361.823 224.122L362.139 223.615L362.22 223.486L362.24 223.454L362.245 223.446L362.246 223.444C362.246 223.444 362.246 223.444 353.765 218.147L362.246 223.444L362.491 223.053L362.686 222.664L362.687 222.662C362.688 222.661 362.688 222.661 362.688 222.66C362.693 222.65 362.707 222.624 362.728 222.584C362.771 222.5 362.849 222.355 362.959 222.153C363.181 221.748 363.534 221.12 364.016 220.317C364.983 218.706 366.454 216.414 368.405 213.812C372.36 208.538 378.016 202.352 385.124 197.831C392.115 193.385 400.32 190.647 409.887 191.696C419.531 192.754 431.768 197.793 446.491 211.171C476.882 238.786 511.529 291.184 538.968 337.689C552.576 360.753 564.228 382.044 572.477 397.571C576.601 405.332 579.87 411.646 582.106 416.012C583.223 418.195 584.082 419.891 584.66 421.037C584.948 421.61 585.167 422.046 585.312 422.336C585.384 422.481 585.439 422.59 585.474 422.661L585.514 422.74L585.523 422.759L585.525 422.763C585.525 422.763 585.525 422.763 585.812 422.62L585.525 422.763L585.81 423.337L586.155 423.853L586.156 423.856C586.162 423.864 586.176 423.886 586.199 423.921C586.227 423.964 586.268 424.029 586.322 424.113C586.354 424.163 586.39 424.221 586.431 424.286C586.648 424.631 586.983 425.177 587.407 425.905C588.257 427.363 589.459 429.541 590.787 432.298C593.459 437.844 596.557 445.561 598.395 454.365C602.038 471.821 600.684 492.727 581.93 510.609C561.007 530.559 543.136 539.371 526.383 543.636C512.569 547.153 499.431 547.677 484.655 548.267C480.901 548.416 477.042 548.57 473.038 548.779C456.108 549.657 361.02 549.937 269.614 549.99C224.031 550.016 179.526 549.987 146.416 549.95C129.861 549.932 116.155 549.912 106.589 549.897C101.805 549.889 98.0566 549.883 95.5039 549.878L92.5921 549.873L91.9416 549.872C91.833 549.863 91.6896 549.851 91.513 549.836C91.3888 549.825 91.2482 549.812 91.0917 549.796C90.2837 549.718 89.0553 549.583 87.4804 549.362C84.3251 548.918 79.8123 548.133 74.5255 546.779C63.8667 544.051 50.5125 539.126 38.7668 530.413C27.1653 521.807 17.1256 509.522 12.5892 491.629C8.01735 473.597 8.78227 448.857 20.7632 415.017C45.1987 345.999 99.7023 253.141 148.587 176.961C172.945 139.003 195.76 105.41 212.486 81.3071C220.847 69.2576 227.683 59.5848 232.425 52.9297C234.796 49.6022 236.643 47.0295 237.896 45.2917C238.522 44.4227 238.999 43.7626 239.319 43.3211C239.366 43.2563 239.409 43.1962 239.449 43.1408C239.558 43.0256 239.695 42.8824 239.858 42.7134C240.402 42.1512 241.242 41.3044 242.356 40.2432C244.589 38.1175 247.904 35.1517 252.131 31.8991C260.643 25.3486 272.541 17.8764 286.502 13.5721C300.345 9.30401 316.091 8.1749 332.823 14.0257C349.601 19.8925 368.341 33.1185 387.513 59.2782Z" fill="white" stroke="#FFFFFF" stroke-width="20"/>
</svg>
