<svg width="25" height="25" viewBox="0 0 25 25" fill="none" xmlns="http://www.w3.org/2000/svg">
<g clip-path="url(#clip0_638_2441)">
<path d="M18.75 10.4167C18.75 8.75907 18.0915 7.16936 16.9194 5.99726C15.7473 4.82516 14.1576 4.16668 12.5 4.16668C10.8424 4.16668 9.2527 4.82516 8.08059 5.99726C6.90849 7.16936 6.25001 8.75907 6.25001 10.4167V18.75H18.75V10.4167ZM20.8333 19.4448L21.25 20C21.308 20.0774 21.3434 20.1694 21.3521 20.2657C21.3608 20.3621 21.3424 20.4589 21.2992 20.5454C21.2559 20.6319 21.1894 20.7047 21.1072 20.7556C21.0249 20.8064 20.9301 20.8333 20.8333 20.8333H4.16668C4.06995 20.8333 3.97514 20.8064 3.89286 20.7556C3.81058 20.7047 3.74409 20.6319 3.70083 20.5454C3.65757 20.4589 3.63926 20.3621 3.64795 20.2657C3.65663 20.1694 3.69198 20.0774 3.75001 20L4.16668 19.4448V10.4167C4.16668 8.20654 5.04465 6.08692 6.60745 4.52412C8.17026 2.96132 10.2899 2.08334 12.5 2.08334C14.7101 2.08334 16.8298 2.96132 18.3926 4.52412C19.9554 6.08692 20.8333 8.20654 20.8333 10.4167V19.4448ZM9.89584 21.875H15.1042C15.1042 22.5657 14.8298 23.2281 14.3414 23.7164C13.8531 24.2048 13.1907 24.4792 12.5 24.4792C11.8093 24.4792 11.147 24.2048 10.6586 23.7164C10.1702 23.2281 9.89584 22.5657 9.89584 21.875Z" fill="#434343"/>
</g>
<defs>
<clipPath id="clip0_638_2441">
<rect width="25" height="25" fill="white"/>
</clipPath>
</defs>
</svg>
