<svg width="14" height="14" viewBox="0 0 14 14" fill="none" xmlns="http://www.w3.org/2000/svg">
<path fill-rule="evenodd" clip-rule="evenodd" d="M1.67009 2.07323C1.67141 2.07324 1.63817 2.10749 1.5963 2.14832C1.43546 2.30306 1.10247 2.62507 1.09569 3.30163C1.08562 4.24802 1.69902 6.00788 4.68043 9.01648C7.64803 12.0105 9.39943 12.6475 10.3478 12.6515L10.3617 12.6515C11.0383 12.6511 11.3627 12.3204 11.5196 12.1617C11.5675 12.113 11.606 12.0774 11.6333 12.0551C12.2954 11.3951 12.6352 10.9032 12.6335 10.587C12.6305 10.2643 12.231 9.88098 11.6788 9.35088C11.503 9.18215 11.3122 8.9988 11.1108 8.79557C10.589 8.27022 10.3287 8.35841 9.75621 8.55706C8.96447 8.83084 7.87791 9.20324 6.20133 7.51033C4.5221 5.81674 4.90525 4.73502 5.18572 3.94586C5.38836 3.37528 5.48095 3.11509 4.9585 2.58775C4.75386 2.38186 4.57032 2.18665 4.40126 2.00736C3.8796 1.45357 3.50333 1.05318 3.18259 1.0472L3.1773 1.04717C2.86051 1.04584 2.36673 1.38238 1.66677 2.07586C1.66877 2.07389 1.67009 2.07323 1.67009 2.07323ZM10.3434 13.6435C8.69532 13.6366 6.55322 12.3154 3.97582 9.71523C1.38855 7.10446 0.0853809 4.94354 0.103644 3.29216C0.115201 2.20094 0.690124 1.6445 0.906134 1.43575C0.917448 1.42191 0.955999 1.38437 0.969293 1.3712C1.92252 0.426144 2.56401 0.0452491 3.2002 0.0551045C3.9389 0.0682403 4.46187 0.623356 5.12364 1.32654C5.28744 1.50051 5.46505 1.68975 5.66311 1.889C6.6238 2.85866 6.34466 3.64518 6.12055 4.27652C5.87631 4.9653 5.66495 5.55965 6.90594 6.81224C8.14826 8.06483 8.74454 7.85901 9.43294 7.61919C10.067 7.40096 10.8541 7.12782 11.8161 8.09749C12.0109 8.29408 12.1958 8.47144 12.3663 8.63552C13.0666 9.30712 13.6194 9.83789 13.625 10.5787C13.6296 11.2103 13.2428 11.8522 12.2909 12.7959L11.873 12.5098L12.2258 12.8578C12.015 13.0719 11.4539 13.6423 10.362 13.6436L10.3434 13.6435Z" fill="#6C6C6C"/>
</svg>
