<svg id="Layer_1" data-name="Layer 1" xmlns="http://www.w3.org/2000/svg" xmlns:xlink="http://www.w3.org/1999/xlink" viewBox="0 0 211.33 334.18"><defs><style>.cls-1{fill:url(#linear-gradient);}.cls-2{fill:url(#linear-gradient-2);}.cls-3{fill:#9e9e9e;}.cls-4{fill:#a3a3a3;}.cls-5{fill:none;stroke:#fe917d;stroke-linecap:round;stroke-linejoin:round;stroke-width:5px;}.cls-6{fill:#fff;opacity:0.2;}.cls-7{fill:url(#linear-gradient-3);}.cls-8{fill:#fe917d;}.cls-9{fill:url(#linear-gradient-4);}</style><linearGradient id="linear-gradient" x1="314.91" y1="531.75" x2="313.66" y2="370.76" gradientUnits="userSpaceOnUse"><stop offset="0.17" stop-color="#fd9675"/><stop offset="0.21" stop-color="#fd8b6f"/><stop offset="0.28" stop-color="#fe7463"/><stop offset="0.37" stop-color="#fe6359"/><stop offset="0.48" stop-color="#ff5753"/><stop offset="0.63" stop-color="#ff504f"/><stop offset="1" stop-color="#ff4e4e"/></linearGradient><linearGradient id="linear-gradient-2" x1="35.68" y1="144.4" x2="174.23" y2="144.4" gradientUnits="userSpaceOnUse"><stop offset="0.82" stop-color="#ababab"/><stop offset="1" stop-color="#c0c4c4"/></linearGradient><linearGradient id="linear-gradient-3" x1="387.3" y1="447.19" x2="419.92" y2="447.19" xlink:href="#linear-gradient"/><linearGradient id="linear-gradient-4" x1="209.09" y1="447.19" x2="241.71" y2="447.19" xlink:href="#linear-gradient"/></defs><path class="cls-1" d="M335.17,568.37H292.56c-23.63,0-47.77-15-55.8-39.79-5.32-16.45-3.18-54.92-3.18-82.61V251.1a16.89,16.89,0,0,1,16.9-16.9H377.25a16.9,16.9,0,0,1,16.9,16.9V446c0,23.71-.69,67-3.21,82.61C382.91,551.42,360.29,568.37,335.17,568.37Z" transform="translate(-208.91 -234.2)"/><rect class="cls-2" x="35.68" y="42.54" width="138.55" height="203.74"/><rect class="cls-3" x="48.7" y="69.49" width="112.53" height="142.79"/><path class="cls-3" d="M370.13,435.76a399.45,399.45,0,0,1-112.53,0l-6.36,44.71a444.62,444.62,0,0,0,125.25,0Z" transform="translate(-208.91 -234.2)"/><path class="cls-4" d="M370.13,307.67a398.71,398.71,0,0,0-112.53,0c-2.12-14.91-4.24-16-6.36-30.94a444.62,444.62,0,0,1,125.25,0C374.37,291.64,372.25,292.76,370.13,307.67Z" transform="translate(-208.91 -234.2)"/><line class="cls-5" x1="174.23" y1="256.67" x2="158.04" y2="194.19"/><line class="cls-5" x1="158.04" y1="77.14" x2="174.23" y2="42.54"/><line class="cls-5" x1="35.89" y1="256.67" x2="52.08" y2="194.19"/><line class="cls-5" x1="52.08" y1="77.14" x2="35.89" y2="42.54"/><line class="cls-5" x1="52.08" y1="196.93" x2="52.08" y2="77.14"/><line class="cls-5" x1="158.04" y1="196.93" x2="158.04" y2="77.14"/><path class="cls-6" d="M239.6,405.51a1.41,1.41,0,0,0-1.42-1.42h0a1.42,1.42,0,0,0-1.42,1.42V473.4a1.43,1.43,0,0,0,1.42,1.42h0a1.42,1.42,0,0,0,1.42-1.42Z" transform="translate(-208.91 -234.2)"/><path class="cls-7" d="M387.3,441.61h32.62a16.55,16.55,0,0,1-7,11.16H394.35A16.53,16.53,0,0,1,387.3,441.61Z" transform="translate(-208.91 -234.2)"/><path class="cls-8" d="M420.24,441.61a1.43,1.43,0,0,0-1.43-1.43H388.56a1.43,1.43,0,0,0-1.44,1.43h0a1.43,1.43,0,0,0,1.44,1.43h30.25a1.43,1.43,0,0,0,1.43-1.43Z" transform="translate(-208.91 -234.2)"/><path class="cls-9" d="M209.09,441.61h32.62a16.56,16.56,0,0,1-7.05,11.16H216.13A16.52,16.52,0,0,1,209.09,441.61Z" transform="translate(-208.91 -234.2)"/><path class="cls-8" d="M242,441.61a1.44,1.44,0,0,0-1.44-1.43H210.34a1.43,1.43,0,0,0-1.43,1.43h0a1.43,1.43,0,0,0,1.43,1.43h30.25a1.44,1.44,0,0,0,1.44-1.43Z" transform="translate(-208.91 -234.2)"/></svg>