<svg width="35" height="32" viewBox="0 0 35 32" fill="none" xmlns="http://www.w3.org/2000/svg">
<path d="M26.2546 14.7627L25.2104 17.0432H26.8438L26.3888 15.2875L26.2546 14.7627Z" fill="#434343"/>
<path d="M32.6667 4.26672H2.33333C1.0465 4.26672 0 5.22352 0 6.40006V25.6001C0 26.7766 1.0465 27.7334 2.33333 27.7334H32.6667C33.9535 27.7334 35 26.7766 35 25.6001V6.40006C35 5.22352 33.9535 4.26672 32.6667 4.26672ZM5.84033 13.2587C5.8516 13.2145 5.87923 13.1751 5.91855 13.1473C5.95787 13.1195 6.00648 13.105 6.05617 13.1062L8.11883 13.1083H8.127C8.42917 13.119 8.84567 13.1809 8.9775 13.5979L8.97983 13.6075L9.34617 15.0667C9.35592 15.109 9.34882 15.1531 9.32615 15.1911C9.30347 15.229 9.26671 15.2583 9.2225 15.2737C9.17729 15.291 9.12726 15.2948 9.07951 15.2847C9.03176 15.2745 8.98872 15.2509 8.9565 15.2171C8.26817 14.4523 7.23917 13.8465 5.9815 13.4646C5.93456 13.4519 5.8943 13.424 5.8683 13.3861C5.8423 13.3482 5.83235 13.3029 5.84033 13.2587ZM10.6972 19.1915L8.92733 19.1937C8.88158 19.1945 8.83668 19.1822 8.799 19.1585C8.76131 19.1348 8.73274 19.1008 8.71733 19.0614L7.17967 14.6305C7.15283 14.5537 7.18783 14.4705 7.266 14.4257C7.34417 14.3809 7.448 14.383 7.52267 14.4321C8.631 15.1499 9.42433 16.0534 9.71833 16.6315C9.72261 16.6394 9.72612 16.6476 9.72883 16.6561L9.9295 17.2694L11.7997 13.2406C11.8174 13.2049 11.8462 13.1748 11.8825 13.154C11.9188 13.1331 11.961 13.1224 12.0038 13.1233L13.6022 13.1222C13.6378 13.1216 13.673 13.1288 13.7049 13.1433C13.7368 13.1578 13.7644 13.1791 13.7853 13.2054C13.8262 13.2566 13.8332 13.3227 13.804 13.3803L10.899 19.0806C10.8802 19.1146 10.8512 19.143 10.8155 19.1626C10.7798 19.1822 10.7388 19.1922 10.6972 19.1915ZM15.498 19.0443C15.4874 19.0893 15.4598 19.1294 15.4202 19.1576C15.3805 19.1859 15.3313 19.2005 15.281 19.199H13.762C13.7305 19.1992 13.6993 19.1934 13.6704 19.182C13.6415 19.1707 13.6155 19.1539 13.594 19.1329C13.5737 19.113 13.5587 19.089 13.5502 19.0629C13.5416 19.0368 13.5399 19.0093 13.545 18.9825L14.7 13.2705C14.7108 13.2259 14.7383 13.1862 14.7777 13.1582C14.8171 13.1301 14.8659 13.1155 14.9158 13.1169H16.436C16.5002 13.1169 16.562 13.1414 16.604 13.183C16.6448 13.2246 16.6623 13.279 16.6518 13.3323L15.4968 19.0443H15.498ZM20.6255 15.583C21.714 15.999 22.2192 16.5035 22.2122 17.1723C22.1982 18.3894 20.9032 19.1766 18.914 19.1777H18.9117C18.2175 19.1702 17.4942 19.0753 16.9762 18.9217C16.9289 18.9092 16.8883 18.8814 16.8619 18.8435C16.8354 18.8056 16.8251 18.7602 16.8327 18.7158L17.0205 17.7878C17.0267 17.7596 17.0399 17.7331 17.0591 17.7103C17.0783 17.6876 17.1031 17.6692 17.1313 17.6566C17.1606 17.6432 17.1927 17.6355 17.2254 17.634C17.2582 17.6325 17.2909 17.6373 17.3215 17.6481C17.9095 17.8539 18.3248 17.9521 19.0972 17.9521C19.6385 17.9521 20.2242 17.7739 20.2288 17.3803C20.2323 17.1233 19.985 16.9398 19.2488 16.6529C18.5302 16.3723 17.5758 15.9019 17.5887 15.0593C17.5992 13.9201 18.9152 13.1243 20.79 13.1243C21.4515 13.1243 21.98 13.2299 22.3067 13.3185C22.4117 13.3462 22.4747 13.4347 22.456 13.5254L22.2787 14.4065C22.2726 14.4343 22.2596 14.4604 22.2408 14.483C22.222 14.5055 22.1979 14.5239 22.1702 14.5366C22.1416 14.5501 22.1103 14.5581 22.0782 14.5601C22.0461 14.5621 22.0138 14.5581 21.9835 14.5483C21.5547 14.4072 21.101 14.3395 20.6453 14.3489C19.929 14.3489 19.5557 14.6017 19.5557 14.8513C19.5522 15.1286 19.9605 15.3099 20.6255 15.583ZM29.1212 19.1318C29.0998 19.1537 29.0735 19.1713 29.0442 19.1832C29.0148 19.1952 28.983 19.2013 28.9508 19.2011H27.5777C27.5291 19.2024 27.4815 19.1887 27.4426 19.1622C27.4036 19.1356 27.3756 19.0979 27.363 19.055C27.3163 18.879 27.2067 18.4513 27.1612 18.2902L25.781 18.2891H25.7518L24.6447 18.2881C24.6038 18.3766 24.479 18.6507 24.2865 19.0817C24.2689 19.1178 24.24 19.1484 24.2035 19.1696C24.167 19.1909 24.1244 19.2018 24.0812 19.2011H22.5062C22.4703 19.2016 22.4348 19.1942 22.4028 19.1795C22.3707 19.1649 22.3429 19.1434 22.3218 19.1169C22.302 19.0916 22.2901 19.0619 22.2872 19.0309C22.2843 18.9999 22.2907 18.9688 22.3055 18.9409L25.0857 13.6278C25.2712 13.2737 25.5792 13.1233 26.1158 13.1233H27.4575C27.5602 13.1233 27.6488 13.183 27.671 13.2683L29.1643 18.975C29.1715 19.0024 29.1713 19.0309 29.1638 19.0582C29.1562 19.0855 29.1416 19.1108 29.1212 19.1318Z" fill="#434343"/>
</svg>
